General
Complete name                            : Red Cliff I & II [2009] BRRip XviD - CODY.avi
Format                                   : AVI
Format/Info                              : Audio Video Interleave
Format profile                           : OpenDML
File size                                : 2.01 GiB
Duration                                 : 4h 37mn
Overall bit rate                         : 1 041 Kbps

Video
ID                                       : 0
Format                                   : MPEG-4 Visual
Format profile                           : Advanced Simple@L5
Format settings, BVOP                    : 4
Format settings, QPel                    : No
Format settings, GMC                     : No warppoints
Format settings, Matrix                  : Default (H.263)
Codec ID                                 : XVID
Codec ID/Hint                            : XviD
Duration                                 : 4h 37mn
Bit rate                                 : 900 Kbps
Width                                    : 720 pixels
Height                                   : 304 pixels
Display aspect ratio                     : 2.35:1
Frame rate                               : 24.000 fps
Color space                              : YUV
Chroma subsampling                       : 4:2:0
Bit depth                                : 8 bits
Scan type                                : Progressive
Compression mode                         : Lossy
Bits/(Pixel*Frame)                       : 0.171
Stream size                              : 1.74 GiB (87%)
Writing library                          : XviD 1.2.1 (UTC 2008-12-04)

Audio
ID                                       : 1
Format                                   : MPEG Audio
Format version                           : Version 1
Format profile                           : Layer 3
Codec ID                                 : 55
Codec ID/Hint                            : MP3
Duration                                 : 4h 37mn
Bit rate mode                            : Constant
Bit rate                                 : 128 Kbps
Channel(s)                               : 2 channels
Sampling rate                            : 48.0 KHz
Compression mode                         : Lossy
Stream size                              : 254 MiB (12%)
Alignment                                : Aligned on interleaves
Interleave, duration                     : 42 ms (1.00 video frame)
Interleave, preload duration             : 504 ms
Writing library                          : L3.99r
Encoding settings                        : -m s -V 4 -q 2 -lowpass 17 -b 128


IMDB link:    Red Cliff I                  http://www.imdb.com/title/tt0425637/
              Red Clif II                  http://www.imdb.com/title/tt1326972/


This is Red Cliff 1 & 2: International Version [Blu-ray] [2009]


Subtitles included                       : Arabic, English, Romanian, Russian,
                                           Vietnamese


Please seed at  least 1,5:1 . This way this torrent has a chance to survive !


Thanks . Enjoy !!